<svg xmlns="http://www.w3.org/2000/svg" width="24" height="24 " viewBox="0 0 64 64" fill="none" style="display: flex; justify-content: center;">
<path d="M31.9999 34.6667C31.2443 34.6667 30.611 34.4111 30.0999 33.9C29.5888 33.3889 29.3332 32.7556 29.3332 32V15.5333L18.9332 25.8667C18.4443 26.3556 17.8332 26.6111 17.0999 26.6333C16.3666 26.6556 15.7332 26.4 15.1999 25.8667C14.711 25.3778 14.4666 24.7556 14.4666 24C14.4666 23.2445 14.711 22.6222 15.1999 22.1333L30.1332 7.20001C30.3999 6.93334 30.6888 6.74445 30.9999 6.63334C31.311 6.52223 31.6443 6.46667 31.9999 6.46667C32.3554 6.46667 32.6888 6.52223 32.9999 6.63334C33.311 6.74445 33.5999 6.93334 33.8666 7.20001L48.7999 22.1333C49.2888 22.6222 49.5332 23.2333 49.5332 23.9667C49.5332 24.7 49.2888 25.3333 48.7999 25.8667C48.2666 26.4 47.6332 26.6667 46.8999 26.6667C46.1666 26.6667 45.5332 26.4 44.9999 25.8667L34.6666 15.5333V32C34.6666 32.7556 34.411 33.3889 33.8999 33.9C33.3888 34.4111 32.7554 34.6667 31.9999 34.6667ZM31.9999 48C31.2443 48 30.611 47.7445 30.0999 47.2333C29.5888 46.7222 29.3332 46.0889 29.3332 45.3333V42.6667C29.3332 41.9111 29.5888 41.2778 30.0999 40.7667C30.611 40.2556 31.2443 40 31.9999 40C32.7554 40 33.3888 40.2556 33.8999 40.7667C34.411 41.2778 34.6666 41.9111 34.6666 42.6667V45.3333C34.6666 46.0889 34.411 46.7222 33.8999 47.2333C33.3888 47.7445 32.7554 48 31.9999 48ZM31.9999 58.6667C31.2443 58.6667 30.611 58.4111 30.0999 57.9C29.5888 57.3889 29.3332 56.7556 29.3332 56C29.3332 55.2445 29.5888 54.6111 30.0999 54.1C30.611 53.5889 31.2443 53.3333 31.9999 53.3333C32.7554 53.3333 33.3888 53.5889 33.8999 54.1C34.411 54.6111 34.6666 55.2445 34.6666 56C34.6666 56.7556 34.411 57.3889 33.8999 57.9C33.3888 58.4111 32.7554 58.6667 31.9999 58.6667Z" fill="#29136C"/>
</svg>