<svg width="163" height="72" viewBox="0 0 163 72" fill="none" xmlns="http://www.w3.org/2000/svg">
<path fill-rule="evenodd" clip-rule="evenodd" d="M45.7812 26.6747H58.2964V28.9833H45.7812V26.6747Z" fill="#FAA61A"/>
<path fill-rule="evenodd" clip-rule="evenodd" d="M45.7812 30.8666H58.2964L57.6889 33.1145H46.4495L45.7812 30.8666Z" fill="#0DB14B"/>
<path fill-rule="evenodd" clip-rule="evenodd" d="M18.0773 35.4839C17.7128 35.6054 17.4698 35.6054 17.2875 35.6054C16.8623 35.6054 16.6192 35.6054 16.1332 35.4232V32.5678H17.2875H18.3811H22.9376V34.7549C22.5123 34.2688 22.0263 33.7828 21.7833 33.6006C21.5402 33.4183 20.9935 33.2968 20.5682 33.2968C19.1101 33.3575 18.0773 34.3296 18.0773 35.4839ZM88.0649 32.6285V33.9043H85.9385C84.4197 33.9043 83.7514 34.7549 83.7514 35.6054C83.7514 36.6382 84.2982 37.5495 85.8778 39.7974L86.4853 39.3721C85.6955 38.4001 85.1487 37.428 85.1487 36.699C85.1487 35.8484 85.4525 35.2409 86.4853 35.2409H88.1256V38.8861L89.5837 39.9189V32.6285H91.1633L90.3735 31.2919H83.3869H82.2326H77.9799H76.8256H74.6385H73.4841H70.8718H70.1427H70.082L70.8718 32.6285H70.9325H71.6616H72.0261V35.6662H69.5352L69.596 33.9043C69.596 32.9323 69.0492 31.2312 67.3481 31.2312C66.2545 31.2312 65.647 32.021 65.647 32.8715C65.647 33.7828 66.376 34.6941 68.1986 35.1194L68.1379 35.6662H67.3481C67.0443 35.6662 66.8621 35.9092 66.8621 36.1522C66.8621 36.699 68.4416 38.2178 68.9277 38.2178C69.2922 38.2178 69.3529 37.914 69.4137 37.0635H72.0261V38.9468L73.4841 39.9796V32.6893H74.2739H75.4282V38.9468L76.8256 39.9796V32.6893H77.6154H78.7697H80.0455V34.9371C80.0455 35.1194 79.9847 35.2409 79.8632 35.2409C79.5595 35.2409 79.1949 34.8156 78.7697 34.8156C78.5266 34.8156 78.2836 35.1801 78.2836 35.3624C78.2836 35.6054 78.5874 36.0307 79.1342 36.7597L81.8073 40.1011L82.3541 39.5544C81.2605 38.4001 80.653 37.7318 80.2885 37.185C80.8353 36.7597 81.3213 36.2129 81.3213 35.6054V32.75H82.9009H84.0552H88.0649V32.6285ZM68.3809 33.1145L68.3201 34.3904C67.4088 34.2081 66.9836 33.7828 66.9836 33.1145C66.9836 32.6285 67.4088 32.0817 67.7734 32.0817C68.0164 32.1425 68.3809 32.3855 68.3809 33.1145ZM37.1538 33.5398V32.6285H39.4017L38.6119 31.2919H30.5317H29.1344H25.1854H24.0919H17.652H16.5585H11.6982L12.488 32.6285H14.7359V34.9979C14.7359 35.1194 14.6751 35.1801 14.6751 35.1801C14.4929 35.1801 14.1284 34.6941 13.8246 34.6941C13.5816 34.6941 13.2171 34.9371 13.2171 35.2409C13.2171 35.6662 13.6423 36.3952 13.8854 36.7597L16.437 40.2834L17.0445 39.6759C16.2547 38.7646 15.6472 38.157 14.9789 37.2457C15.2827 37.0027 15.7079 36.6382 16.0725 36.0914C16.4977 36.456 16.9838 36.8812 17.4698 36.8812C17.7128 36.8812 18.0773 36.8205 18.4418 36.7597C18.9886 37.6103 19.8999 38.2785 20.872 38.2785C21.5402 38.2785 22.2085 37.9748 22.9983 37.3673V38.8861L24.3956 39.9189V32.6285H24.8209H25.9145H29.8634H31.2607H35.8172V33.4183C34.8452 33.5398 34.2984 34.3296 34.2984 35.1194C34.2984 35.9699 34.9667 36.7597 36.2425 37.4888C35.635 38.2786 34.2984 38.8253 33.3871 38.8253C32.6581 38.8253 32.415 38.6431 32.415 38.2178C32.415 37.7318 32.9011 37.3065 34.2376 37.3065L33.6301 35.8484C33.2048 35.7877 32.4758 35.9092 32.2935 36.0914C32.2328 36.0307 32.1113 35.9699 32.0505 35.9092L31.8075 35.5447C31.8075 35.4839 31.8075 35.4232 31.8075 35.4232C31.8075 34.9979 32.172 34.6334 32.7188 34.6334C32.9011 34.6334 33.3871 34.6941 33.6301 34.7549L32.9618 33.3575C32.8403 33.2968 32.5366 33.2968 32.2935 33.2968C31.3822 33.2968 30.8355 33.7828 30.6532 34.3904L30.4102 33.9043H25.5499L26.3397 35.2409H27.251C27.0688 35.5447 27.008 35.7877 27.008 36.2129C27.008 37.2457 28.2838 38.5823 29.4989 38.5823C29.9242 38.5823 30.5317 38.3393 31.3215 37.7925C31.5645 38.7646 32.9618 39.9189 34.2376 39.9189C35.9995 39.9189 38.4296 38.157 38.4296 35.7269C38.4296 35.0586 37.7613 33.9651 37.1538 33.5398ZM30.7747 35.2409C30.8962 35.4839 31.0785 35.7877 31.2607 35.9699C30.2887 36.942 29.3774 37.428 28.6484 37.428C28.2838 37.428 28.1016 37.3065 28.1016 36.942C28.1016 36.3952 28.5876 35.6054 29.0736 35.4232C29.3774 35.2409 29.8634 35.2409 30.2887 35.2409H30.7747ZM36.607 36.942C36.0602 36.456 35.7565 36.0307 35.7565 35.4839C35.7565 34.8764 36.1817 34.2688 36.6678 34.2688C36.9715 34.2688 37.1538 34.5119 37.1538 35.1801C37.1538 35.6662 36.85 36.6382 36.607 36.942ZM20.1429 37.185C19.7177 37.185 19.3531 36.8812 19.3531 36.3344C19.3531 35.4839 19.9607 34.7549 20.8112 34.7549C21.5402 34.7549 22.3908 35.0586 22.9983 35.6662V35.8484C22.2085 36.3952 20.8112 37.185 20.1429 37.185Z" fill="black"/>
<path fill-rule="evenodd" clip-rule="evenodd" d="M9.2074 66.5896V63.4911H9.87568H10.7262H13.8854V65.3745C13.5816 64.8277 13.3994 64.5847 13.1563 64.4024C12.9741 64.2809 12.4881 64.1594 12.2451 64.1594C11.1515 64.1594 10.4832 64.9492 10.4832 65.7998C10.4832 66.7111 11.6983 67.7439 12.6703 67.7439C13.0348 67.7439 13.6424 67.4401 13.9461 67.1971V68.2906L15.0397 69.0804V66.6503C15.2827 66.3465 16.2548 65.739 16.6193 65.739C16.8015 65.739 16.9838 65.9213 16.9838 66.1035C16.9838 66.4073 16.5585 67.3793 16.194 68.0476L17.2268 68.7767C17.5913 68.2906 17.8343 67.3186 17.8343 66.8326C17.8343 65.6783 17.0445 64.767 16.2548 64.767C15.951 64.767 15.3435 65.01 15.1004 65.253V63.4304H18.6849L18.0773 62.3976H10.1794H9.3289H3.92188L4.52941 63.4304H5.37995V66.7718C5.37995 67.0148 5.4407 67.1971 5.80522 67.5009C6.04823 67.6831 8.78212 69.2627 9.08589 69.5057C9.26815 69.6272 9.38966 69.8095 9.38966 69.9917C9.38966 70.1132 9.26815 70.3562 9.2074 70.4778L10.1794 71.2068C10.3617 71.0245 10.6655 70.5385 10.6655 70.2955C10.6655 69.9917 10.4225 69.688 10.1187 69.5057L7.44556 67.8654C6.53426 67.3186 6.41275 67.0148 6.41275 66.7111V63.4911H8.05309V65.7998C8.05309 66.225 7.93158 66.4073 7.62781 66.4073C7.44555 66.4073 7.2633 66.3465 7.14179 66.3465L7.62781 67.1363C7.99233 67.2578 8.35685 67.3186 8.59986 67.3186C9.02514 67.3793 9.2074 67.1971 9.2074 66.5896ZM97.2994 63.4911H98.1499V65.1922C98.1499 65.3137 98.0892 65.3745 98.0284 65.3745C97.8462 65.3745 97.5424 65.0707 97.2386 65.0707C97.0564 65.0707 96.8741 65.3137 96.8741 65.4352C96.8741 65.6175 97.0564 65.982 97.5424 66.468L99.5473 68.9589L99.9725 68.5337C99.1827 67.6831 98.6967 67.1363 98.393 66.7718C98.8182 66.4681 99.1827 66.0428 99.1827 65.5568V63.4304H101.188L100.58 62.3976H96.7526H95.7806H95.4161C94.7478 61.304 94.3225 60.4535 93.7757 59.9675C93.3505 59.603 92.9859 59.5422 92.8037 59.5422C92.4999 59.5422 92.1354 59.5422 92.1354 59.7852C92.1354 59.9067 92.1961 60.0282 92.6214 60.8788C92.8037 60.818 93.1074 60.7573 93.2897 60.7573C93.5327 60.7573 93.715 60.8788 93.8972 61.061C94.201 61.3648 94.5048 61.7293 94.93 62.3976H94.1402H93.2897H91.0418L91.5886 63.4304H92.3784V64.9492C92.3784 65.253 91.7709 65.6175 91.2241 65.6175C90.9811 65.6175 90.5558 65.4352 90.3128 65.1922C90.7381 64.8885 90.8596 64.6455 90.8596 64.3417C90.8596 63.4911 89.6445 62.3368 88.6117 62.3368C88.3079 62.3368 87.4574 62.5799 87.0321 62.7621L87.5789 63.8557C88.3687 63.5519 89.1585 63.3089 89.4015 63.3696C89.7053 63.3696 89.8875 63.4911 89.8875 63.7949C89.8875 64.3417 89.3407 64.8277 88.1864 65.01C87.9434 65.0707 87.8827 65.1315 87.8827 65.1922C87.8827 65.253 88.2472 65.7998 88.551 66.1035C89.037 65.982 89.5838 65.7998 89.8875 65.6175C90.009 65.7998 90.1305 66.1643 90.1305 66.468C90.1305 67.0148 89.5838 67.4401 88.8547 67.4401C88.1864 67.4401 87.5182 66.8326 86.9714 65.739L86.5461 65.982C87.2144 67.3793 88.3079 68.3514 89.28 68.3514C90.3128 68.3514 91.0418 67.6831 91.0418 66.8326C91.0418 66.6503 90.9811 66.3465 90.9203 66.1643V66.1035C91.1633 66.2858 91.8316 66.468 91.9531 66.468C92.0746 66.468 92.2569 66.468 92.3784 66.4073V68.1691L93.472 68.8982V63.4304H93.8365H94.687H94.7478V68.1084L95.8413 68.8374V63.3696H96.3274H97.2994V63.4911ZM84.2982 63.4911L83.6907 62.4583H82.5364C82.3541 60.575 81.4428 59.7245 80.3493 59.7245C79.4987 59.7245 78.8305 60.332 78.8305 61.0003C78.8305 61.304 79.0127 61.6686 79.2557 61.9116L79.8633 61.8508C79.8633 61.6686 79.8633 61.6078 79.8633 61.4863C79.8633 61.061 80.2278 60.6965 80.7138 60.6965C81.3821 60.6965 81.9896 61.4255 82.0504 62.5191H81.1998H80.3493H72.5121L73.1197 63.5519H77.1294V65.4352C76.8256 64.8885 76.6433 64.6455 76.4003 64.4632C76.2181 64.3417 75.7928 64.2202 75.489 64.2202C74.3955 64.2202 73.7272 65.01 73.7272 65.8605C73.7272 66.7718 74.9423 67.8046 75.9143 67.8046C76.2788 67.8046 76.8864 67.5008 77.1901 67.2578V68.3514L78.2837 69.1412V66.7111C78.5267 66.4073 79.4987 65.7998 79.8633 65.7998C80.0455 65.7998 80.2278 65.982 80.2278 66.1643C80.2278 66.468 79.8025 67.4401 79.438 68.1084L80.4708 68.8374C80.8353 68.3514 81.0783 67.3793 81.0783 66.8933C81.0783 65.739 80.2885 64.8277 79.4987 64.8277C79.195 64.8277 78.5874 65.0707 78.3444 65.3137V63.4911H81.0783H81.9289V68.1691L83.0224 68.8982V63.4304H84.2982V63.4911ZM77.1294 66.0428C76.8256 66.2858 75.5498 67.0756 75.1853 67.0756C74.9423 67.0756 74.6992 66.8326 74.6992 66.4073C74.6992 65.8605 75.246 65.253 75.7928 65.253C76.2181 65.253 76.7648 65.496 77.1294 66.0428ZM69.596 68.9589V63.4911H71.0541L70.4465 62.4583H67.8949H67.0444H62.6094H61.7588H56.2911H55.1975H52.0991H51.2485H46.3275H45.477H41.7103L42.3178 63.4911H44.0189V65.253C44.0189 65.3137 44.0189 65.3745 43.9582 65.3745C43.8367 65.3745 43.5329 65.01 43.2899 65.01C43.1076 65.01 42.8039 65.1922 42.8039 65.4352C42.8039 65.739 43.1076 66.2858 43.3506 66.5896L45.3555 69.2019L45.8415 68.7767C45.234 68.1084 44.748 67.6224 44.2619 66.9541C44.505 66.7718 44.8695 66.468 45.1125 66.1035C45.4162 66.4073 45.7808 66.7111 46.206 66.7111C46.3883 66.7111 46.6921 66.6503 46.9351 66.5896C47.3603 67.1971 48.0894 67.7439 48.8184 67.7439C49.3044 67.7439 49.8512 67.5009 50.4588 67.0148V68.1084L51.5523 68.8374V63.3696H51.9168H52.7674H55.8658H56.9593H60.483V63.9164C59.6932 64.0379 59.3287 64.5847 59.3287 65.1922C59.3287 65.7998 59.8147 66.4073 60.8475 66.9541C60.3615 67.5616 59.3287 67.9869 58.5997 67.9869C58.0529 67.9869 57.8706 67.8046 57.8706 67.5616C57.8706 67.1971 58.2352 66.8326 59.268 66.8326L58.7819 65.739C58.4782 65.6783 57.9314 65.7998 57.7491 65.9213C57.6884 65.8605 57.6276 65.8605 57.5669 65.7998L57.5061 65.3137C57.4454 65.3745 57.3846 65.4352 57.3239 65.496C57.3239 65.496 57.3239 65.4352 57.3239 65.3745C57.3239 65.01 57.6276 64.767 58.0529 64.767C58.1744 64.767 58.5997 64.767 58.7819 64.8277L58.2959 63.8557C58.1744 63.8557 57.9314 63.7949 57.8099 63.7949C57.1416 63.7949 56.6556 64.1594 56.5341 64.5847L56.3518 64.2202H52.5851L53.1926 65.253H53.9217C53.8002 65.4352 53.7394 65.6783 53.7394 65.982C53.7394 66.7718 54.7722 67.7439 55.6835 67.7439C55.9873 67.7439 56.5341 67.5616 57.0808 67.1363C57.2631 67.8654 58.3567 68.7159 59.3287 68.7159C60.726 68.7159 62.5486 67.3793 62.5486 65.6175C62.5486 65.1315 62.0626 64.3417 61.5766 63.9772V63.3089H62.4879H63.3384H66.2546V64.2809H64.675C63.5207 64.2809 63.0346 64.9492 63.0346 65.5568C63.0346 66.2858 63.4599 67.0148 64.6142 68.7159L65.0395 68.3514C64.432 67.6224 64.0067 66.8933 64.0067 66.3465C64.0067 65.739 64.2497 65.253 65.0395 65.253H66.2546V67.9869L67.3481 68.7159V63.2481H67.7126H68.5632H68.6239V67.9261L69.596 68.9589ZM56.5341 65.496C56.6556 65.6783 56.7771 65.9213 56.9593 66.0428C56.1695 66.7718 55.5013 67.1363 54.9545 67.1363C54.6507 67.1363 54.5292 67.0148 54.5292 66.7718C54.5292 66.3465 54.8937 65.7998 55.2583 65.6175C55.5013 65.496 55.8658 65.496 56.1695 65.496H56.5341ZM61.0298 66.7111C60.6045 66.3465 60.3615 66.0428 60.3615 65.6175C60.3615 65.1922 60.6653 64.7062 61.0906 64.7062C61.2728 64.7062 61.4551 64.8885 61.4551 65.3745C61.4551 65.7998 61.2121 66.5288 61.0298 66.7111ZM46.9351 63.4911H50.4588V65.1315C50.155 64.767 49.7297 64.4024 49.5475 64.2809C49.3652 64.1594 48.9399 64.0987 48.5754 64.0987C47.4819 64.0987 46.6313 64.8277 46.6313 65.6175C46.3883 65.6783 46.206 65.739 46.0238 65.739C45.72 65.739 45.477 65.739 45.1125 65.6175V63.4911H46.0238H46.9351ZM48.2716 66.9541C47.9679 66.9541 47.6641 66.7111 47.6641 66.2858C47.6641 65.6175 48.1501 65.1315 48.7577 65.1315C49.3652 65.1315 49.9727 65.3745 50.4588 65.7998V65.9213C49.8512 66.3465 48.7577 66.9541 48.2716 66.9541ZM35.9995 66.7718H37.8829V68.2299L38.9764 68.9589V63.4911H40.1915L39.584 62.4583H33.9339H33.0834H28.7699H27.8586H20.0822L20.6897 63.4911H24.6994V65.3745H24.6387C24.3349 64.8277 24.1527 64.5847 23.9096 64.4024C23.7274 64.2809 23.3021 64.1594 22.9984 64.1594C21.9048 64.1594 21.2365 64.9492 21.2365 65.7998C21.2365 66.7111 22.3908 67.7439 23.4236 67.7439C23.7881 67.7439 24.3957 67.4401 24.6994 67.1971V68.2906L25.793 69.0804V66.6503C26.036 66.3465 27.0081 65.739 27.3726 65.739C27.5548 65.739 27.7371 65.9213 27.7371 66.1035C27.7371 66.4073 27.3118 67.3793 26.9473 68.0476L27.9801 68.7767C28.3446 68.2906 28.5876 67.3186 28.5876 66.8326C28.5876 65.6783 27.7978 64.767 27.0081 64.767C26.7043 64.767 26.0968 65.01 25.8537 65.253V63.4304H28.5269H29.4382H32.2328V64.4024H30.6532C29.6812 64.4024 29.1952 64.8277 29.1952 65.6783C29.1952 67.3793 30.5317 68.4729 31.9291 68.4729C32.3543 68.4729 32.6581 68.3514 32.6581 68.3514L33.5086 70.0525L34.0554 69.7487L33.1441 68.1084C33.3871 67.9261 33.5694 67.7439 33.5694 67.4401C33.5694 66.9541 32.5366 66.2858 32.2328 66.2858C31.9898 66.2858 31.8683 66.4681 31.8683 66.5896C31.8683 66.9541 32.0506 67.0148 32.0506 67.1971C32.0506 67.3186 31.686 67.5616 31.2608 67.5616C30.8355 67.5616 30.1672 67.1971 30.1672 66.3465C30.1672 65.6783 30.5925 65.253 31.1393 65.253H33.2049C33.3264 65.253 33.3871 65.1315 33.3871 64.9492V63.2481H33.8732H34.7237H35.0882V65.496H34.7237C34.5414 65.496 34.4199 65.6175 34.4199 65.7998C34.4199 66.225 35.5135 67.3794 35.878 67.3794C36.0603 67.3794 36.1818 67.2578 36.1818 67.1363V66.7718H35.9995ZM37.8829 63.4911V65.739H35.9995V63.4911H37.8829ZM24.6994 66.0428C24.3957 66.2858 23.1199 67.0756 22.7553 67.0756C22.5123 67.0756 22.2693 66.8326 22.2693 66.4073C22.2693 65.8605 22.8161 65.253 23.3629 65.253C23.7881 65.253 24.3349 65.496 24.6994 66.0428ZM13.8854 66.0428C13.5816 66.2858 12.3058 67.0756 11.9413 67.0756C11.6983 67.0756 11.4553 66.8326 11.4553 66.4073C11.4553 65.8605 12.002 65.253 12.5488 65.253C12.9741 65.253 13.5209 65.496 13.8854 66.0428Z" fill="black"/>
<path fill-rule="evenodd" clip-rule="evenodd" d="M25.125 11.5472C37.7009 11.5472 47.8466 21.7538 47.8466 34.2689C47.8466 46.8448 37.7009 56.9906 25.125 56.9906C12.5491 56.9906 2.40332 46.8448 2.40332 34.2689C2.40332 21.7538 12.5491 11.5472 25.125 11.5472ZM25.125 13.5521C36.5466 13.5521 45.8418 22.7866 45.8418 34.2689C45.8418 45.6905 36.6073 54.9857 25.125 54.9857C13.7034 54.9857 4.40817 45.6905 4.40817 34.2689C4.40817 22.8473 13.7034 13.5521 25.125 13.5521Z" fill="black"/>
<path fill-rule="evenodd" clip-rule="evenodd" d="M78.8909 11.5472C91.4668 11.5472 101.613 21.7538 101.613 34.2689C101.613 46.8448 91.406 56.9906 78.8909 56.9906C66.315 56.9906 56.1692 46.784 56.1692 34.2689C56.1085 21.7538 66.315 11.5472 78.8909 11.5472ZM78.8909 13.5521C90.3125 13.5521 99.6077 22.7866 99.6077 34.2689C99.6077 45.6905 90.3125 54.9857 78.8909 54.9857C67.4693 54.9857 58.1741 45.6905 58.1741 34.2689C58.1741 22.8473 67.4085 13.5521 78.8909 13.5521Z" fill="black"/>
<path fill-rule="evenodd" clip-rule="evenodd" d="M1.49167 33.1145C0.155102 33.7221 -0.695441 31.8387 0.762633 31.1704L8.66054 27.586L58.4781 4.43906L63.0953 2.43421C68.6238 0.368606 74.0916 -1.15022 78.9519 1.1584C86.4853 4.98584 85.3309 16.2252 79.0126 21.5107C77.8583 22.4827 76.5825 21.0247 77.5546 19.9919C87.2143 9.78534 81.2605 -2.6083 65.2217 3.83153C64.1889 4.2568 63.3383 4.56057 62.3663 4.98584C44.0796 13.2483 25.9144 21.7537 7.68849 30.2591L1.49167 33.1145Z" fill="black"/>
<path fill-rule="evenodd" clip-rule="evenodd" d="M98.6363 33.1753C97.3605 33.7828 96.4492 31.8995 97.9073 31.2312L137.154 13.066L141.771 11.0612C147.3 8.99558 152.585 7.23374 157.445 9.54235C164.979 13.3698 163.824 24.6091 157.506 29.8946C156.352 30.8667 155.076 29.4086 156.048 28.3758C165.647 17.987 159.754 5.5934 143.897 12.5193C142.925 12.9445 142.014 13.2483 141.042 13.6736C126.826 20.1134 112.67 26.4317 98.6363 33.1753Z" fill="black"/>
</svg>
