<svg xmlns="http://www.w3.org/2000/svg" width="24" height="24 " viewBox="0 0 64 64" fill="none" style="display: flex; justify-content: center;">
<path d="M45.3333 50.6667H50.6667V13.3333H45.3333V50.6667ZM18.6667 37.3333C19.4222 37.3333 20.0556 37.0778 20.5667 36.5667C21.0778 36.0556 21.3333 35.4222 21.3333 34.6667C21.3333 33.9111 21.0778 33.2778 20.5667 32.7667C20.0556 32.2556 19.4222 32 18.6667 32C17.9111 32 17.2778 32.2556 16.7667 32.7667C16.2556 33.2778 16 33.9111 16 34.6667C16 35.4222 16.2556 36.0556 16.7667 36.5667C17.2778 37.0778 17.9111 37.3333 18.6667 37.3333ZM18.6667 45.3333C19.4222 45.3333 20.0556 45.0778 20.5667 44.5667C21.0778 44.0556 21.3333 43.4222 21.3333 42.6667C21.3333 41.9111 21.0778 41.2778 20.5667 40.7667C20.0556 40.2556 19.4222 40 18.6667 40C17.9111 40 17.2778 40.2556 16.7667 40.7667C16.2556 41.2778 16 41.9111 16 42.6667C16 43.4222 16.2556 44.0556 16.7667 44.5667C17.2778 45.0778 17.9111 45.3333 18.6667 45.3333ZM18.6667 29.3333H34.6667C35.4222 29.3333 36.0556 29.0778 36.5667 28.5667C37.0778 28.0556 37.3333 27.4222 37.3333 26.6667V21.3333C37.3333 20.5778 37.0778 19.9444 36.5667 19.4333C36.0556 18.9222 35.4222 18.6667 34.6667 18.6667H18.6667C17.9111 18.6667 17.2778 18.9222 16.7667 19.4333C16.2556 19.9444 16 20.5778 16 21.3333V26.6667C16 27.4222 16.2556 28.0556 16.7667 28.5667C17.2778 29.0778 17.9111 29.3333 18.6667 29.3333ZM26.6667 37.3333C27.4222 37.3333 28.0556 37.0778 28.5667 36.5667C29.0778 36.0556 29.3333 35.4222 29.3333 34.6667C29.3333 33.9111 29.0778 33.2778 28.5667 32.7667C28.0556 32.2556 27.4222 32 26.6667 32C25.9111 32 25.2778 32.2556 24.7667 32.7667C24.2556 33.2778 24 33.9111 24 34.6667C24 35.4222 24.2556 36.0556 24.7667 36.5667C25.2778 37.0778 25.9111 37.3333 26.6667 37.3333ZM26.6667 45.3333C27.4222 45.3333 28.0556 45.0778 28.5667 44.5667C29.0778 44.0556 29.3333 43.4222 29.3333 42.6667C29.3333 41.9111 29.0778 41.2778 28.5667 40.7667C28.0556 40.2556 27.4222 40 26.6667 40C25.9111 40 25.2778 40.2556 24.7667 40.7667C24.2556 41.2778 24 41.9111 24 42.6667C24 43.4222 24.2556 44.0556 24.7667 44.5667C25.2778 45.0778 25.9111 45.3333 26.6667 45.3333ZM34.6667 37.3333C35.4222 37.3333 36.0556 37.0778 36.5667 36.5667C37.0778 36.0556 37.3333 35.4222 37.3333 34.6667C37.3333 33.9111 37.0778 33.2778 36.5667 32.7667C36.0556 32.2556 35.4222 32 34.6667 32C33.9111 32 33.2778 32.2556 32.7667 32.7667C32.2556 33.2778 32 33.9111 32 34.6667C32 35.4222 32.2556 36.0556 32.7667 36.5667C33.2778 37.0778 33.9111 37.3333 34.6667 37.3333ZM34.6667 45.3333C35.4222 45.3333 36.0556 45.0778 36.5667 44.5667C37.0778 44.0556 37.3333 43.4222 37.3333 42.6667C37.3333 41.9111 37.0778 41.2778 36.5667 40.7667C36.0556 40.2556 35.4222 40 34.6667 40C33.9111 40 33.2778 40.2556 32.7667 40.7667C32.2556 41.2778 32 41.9111 32 42.6667C32 43.4222 32.2556 44.0556 32.7667 44.5667C33.2778 45.0778 33.9111 45.3333 34.6667 45.3333ZM40 48V16H13.3333V48H40ZM45.3333 56C44.3111 56 43.4111 55.7556 42.6333 55.2667C41.8556 54.7778 41.2222 54.1333 40.7333 53.3333H13.3333C11.8667 53.3333 10.6111 52.8111 9.56667 51.7667C8.52222 50.7222 8 49.4667 8 48V16C8 14.5333 8.52222 13.2778 9.56667 12.2333C10.6111 11.1889 11.8667 10.6667 13.3333 10.6667H40.7333C41.2222 9.86667 41.8556 9.22222 42.6333 8.73333C43.4111 8.24444 44.3111 8 45.3333 8H50.6667C52.1333 8 53.3889 8.52222 54.4333 9.56667C55.4778 10.6111 56 11.8667 56 13.3333V50.6667C56 52.1333 55.4778 53.3889 54.4333 54.4333C53.3889 55.4778 52.1333 56 50.6667 56H45.3333Z" fill="#162f6a"/>
</svg>